
<svg version="1.1" id="Capa_1" xmlns="http://www.w3.org/2000/svg" xmlns:xlink="http://www.w3.org/1999/xlink" x="0px" y="0px"
	 viewBox="0 0 100 100" style="enable-background:new 0 0 100 100;" xml:space="preserve">
<style type="text/css">
	.st0{fill:#FFFFFF;}
</style>
<g>
	<g id="shopping-cart">
		<path class="st0" d="M30,80c-5.5,0-10,4.5-10,10s4.5,10,10,10s10-4.5,10-10S35.5,80,30,80z M0,0v10h10l18,38l-7,12
			c-0.5,1.5-1,3.5-1,5c0,5.5,4.5,10,10,10h60V65H32c-0.5,0-1-0.5-1-1v-0.5l4.5-8.5h37c4,0,7-2,8.5-5l18-32.5c1-1,1-1.5,1-2.5
			c0-3-2-5-5-5H21L16.5,0H0z M80,80c-5.5,0-10,4.5-10,10s4.5,10,10,10s10-4.5,10-10S85.5,80,80,80z"/>
	</g>
</g>
</svg>
